<svg version="1.1" id="Layer_1" xmlns="http://www.w3.org/2000/svg" xmlns:xlink="http://www.w3.org/1999/xlink" x="0px" y="0px"
	 width="100%" viewBox="0 0 285 255" enable-background="new 0 0 285 255" xml:space="preserve">
<path fill="#000000" opacity="1.000000" stroke="none" 
	d="
M189.000000,256.000000 
	C126.000008,256.000000 63.500015,256.000000 1.000017,256.000000 
	C1.000011,171.000015 1.000011,86.000038 1.000006,1.000040 
	C95.999969,1.000026 190.999939,1.000026 285.999939,1.000013 
	C285.999939,85.999962 285.999939,170.999924 285.999969,255.999939 
	C253.833328,256.000000 221.666672,256.000000 189.000000,256.000000 
M136.021484,18.910633 
	C136.069870,26.273756 136.118256,33.636879 136.021835,41.742092 
	C136.331406,42.857597 136.640976,43.973103 136.885864,45.610058 
	C136.595932,45.795109 136.305984,45.980160 135.090073,46.021278 
	C130.489563,46.021278 125.889061,46.021278 120.842529,46.021278 
	C120.842529,61.300991 120.842529,76.023048 120.842529,91.209778 
	C115.649979,91.209778 110.917908,91.209778 105.726532,91.209778 
	C105.726532,96.415779 105.726532,101.145988 105.726532,106.152725 
	C95.645340,106.152725 86.040955,106.152725 75.965538,106.152725 
	C75.965538,111.166245 75.965538,115.906097 75.965538,121.085205 
	C60.772846,121.085205 46.051636,121.085205 31.307693,121.085205 
	C31.307693,126.280319 31.307693,131.003769 31.307693,136.187347 
	C46.332005,136.187347 61.053719,136.187347 76.240631,136.187347 
	C76.240631,141.380539 76.240631,146.111389 76.240631,151.295578 
	C86.442642,151.295578 96.171066,151.295578 106.178375,151.295578 
	C106.178375,156.377823 106.178375,160.987946 106.178375,166.064667 
	C111.197311,166.064667 115.937218,166.064667 121.114548,166.064667 
	C121.114548,181.258087 121.114548,195.979889 121.114548,211.082047 
	C126.375763,211.082047 131.175003,211.082047 135.984894,211.015198 
	C135.984894,211.015198 135.918030,211.025848 135.989548,211.958588 
	C135.989548,221.530106 135.989548,231.101608 135.989548,240.703827 
	C141.274719,240.703827 145.989548,240.703827 151.069382,240.703827 
	C151.069382,230.641022 151.069382,220.871841 151.991241,211.010666 
	C156.579056,211.010666 161.166870,211.010666 166.128906,211.010666 
	C166.128906,195.718307 166.128906,181.016998 166.128906,165.894470 
	C171.244263,165.894470 175.977966,165.894470 181.117004,165.894470 
	C181.117004,160.744812 181.117004,156.011017 181.117004,150.890823 
	C191.256104,150.890823 200.972061,150.890823 211.035873,150.890823 
	C211.035873,145.698517 211.035873,140.913727 211.967300,136.011581 
	C226.547775,136.011581 241.128250,136.011581 255.730957,136.011581 
	C255.730957,130.739487 255.730957,126.009598 255.730957,120.887405 
	C240.745132,120.887405 226.023422,120.887405 210.893097,120.887405 
	C210.893097,115.759277 210.893097,111.017731 210.893097,105.970680 
	C200.692810,105.970680 190.907501,105.970680 181.012726,105.045441 
	C181.012726,100.444046 181.012726,95.842651 181.012726,90.816643 
	C175.681625,90.816643 170.940323,90.816643 165.782013,90.816643 
	C165.782013,75.641975 165.782013,60.908348 165.782013,46.522572 
	C160.155716,45.991051 154.995255,45.503536 149.978745,44.087349 
	C150.314957,36.512978 150.770294,28.940739 150.905945,21.362778 
	C150.941055,19.400570 151.197952,16.776840 147.252426,17.465437 
	C143.948486,18.042065 140.417191,17.315941 136.470276,17.097017 
	C136.369064,17.391661 136.267853,17.686302 136.021484,18.910633 
z"/>
<path fill="#FDEE39" opacity="1.000000" stroke="none" 
	d="
M149.834793,45.016022 
	C154.995255,45.503536 160.155716,45.991051 165.782013,46.522572 
	C165.782013,60.908348 165.782013,75.641975 165.782013,90.816643 
	C170.940323,90.816643 175.681625,90.816643 181.012726,90.816643 
	C181.012726,95.842651 181.012726,100.444046 181.027069,105.973145 
	C181.030716,110.399361 181.089279,113.899918 180.985901,117.395691 
	C180.912476,119.879799 181.815063,121.011681 184.447327,121.036339 
	C188.058456,121.070168 192.970734,120.134346 194.907700,122.053825 
	C196.833160,123.961929 195.913071,128.887558 195.962219,132.493744 
	C195.997299,135.067841 197.003067,136.067719 199.545105,136.020065 
	C203.373337,135.948288 207.205429,136.082352 211.035873,136.128922 
	C211.035873,140.913727 211.035873,145.698517 211.035873,150.890823 
	C200.972061,150.890823 191.256104,150.890823 181.117004,150.890823 
	C181.117004,156.011017 181.117004,160.744812 181.117004,165.894470 
	C175.977966,165.894470 171.244263,165.894470 166.128906,165.894470 
	C166.128906,181.016998 166.128906,195.718307 166.128906,211.010666 
	C161.166870,211.010666 156.579056,211.010666 151.062576,211.025314 
	C145.395279,211.035248 140.656662,211.030548 135.918030,211.025848 
	C135.918030,211.025848 135.984894,211.015198 135.985840,210.574066 
	C135.991150,187.477295 135.820724,164.819275 136.129715,142.167801 
	C136.201889,136.876923 134.440598,135.712692 129.569000,135.897400 
	C120.253593,136.250595 110.913277,136.123199 101.587013,135.969330 
	C89.475166,135.769501 91.204292,138.449997 90.964485,124.999199 
	C90.909698,121.925598 92.130669,120.904518 95.097008,120.963058 
	C101.757805,121.094528 108.433891,120.769730 115.082626,121.081451 
	C119.504204,121.288765 121.230110,120.125961 121.118828,115.317871 
	C120.873009,104.696472 119.653183,105.882462 130.265732,106.113609 
	C134.982819,106.216347 136.148361,104.632080 136.093216,100.137741 
	C135.872574,82.149284 136.010651,64.156433 136.016052,46.165211 
	C136.305984,45.980160 136.595932,45.795109 137.135666,45.224461 
	C137.596634,44.583183 137.807800,44.327503 138.362091,44.210361 
	C142.415100,44.571270 146.124939,44.793644 149.834793,45.016022 
z"/>
<path fill="#FCA440" opacity="1.000000" stroke="none" 
	d="
M135.553070,46.093246 
	C136.010651,64.156433 135.872574,82.149284 136.093216,100.137741 
	C136.148361,104.632080 134.982819,106.216347 130.265732,106.113609 
	C119.653183,105.882462 120.873009,104.696472 121.118828,115.317871 
	C121.230110,120.125961 119.504204,121.288765 115.082626,121.081451 
	C108.433891,120.769730 101.757805,121.094528 95.097008,120.963058 
	C92.130669,120.904518 90.909698,121.925598 90.964485,124.999199 
	C91.204292,138.449997 89.475166,135.769501 101.587013,135.969330 
	C110.913277,136.123199 120.253593,136.250595 129.569000,135.897400 
	C134.440598,135.712692 136.201889,136.876923 136.129715,142.167801 
	C135.820724,164.819275 135.991150,187.477295 135.980499,210.607483 
	C131.175003,211.082047 126.375763,211.082047 121.114548,211.082047 
	C121.114548,195.979889 121.114548,181.258087 121.114548,166.064667 
	C115.937218,166.064667 111.197311,166.064667 106.178375,166.064667 
	C106.178375,160.987946 106.178375,156.377823 106.178375,151.295578 
	C96.171066,151.295578 86.442642,151.295578 76.240631,151.295578 
	C76.240631,146.111389 76.240631,141.380539 76.240631,136.187347 
	C61.053719,136.187347 46.332005,136.187347 31.307693,136.187347 
	C31.307693,131.003769 31.307693,126.280319 31.307693,121.085205 
	C46.051636,121.085205 60.772846,121.085205 75.965538,121.085205 
	C75.965538,115.906097 75.965538,111.166245 75.965538,106.152725 
	C86.040955,106.152725 95.645340,106.152725 105.726532,106.152725 
	C105.726532,101.145988 105.726532,96.415779 105.726532,91.209778 
	C110.917908,91.209778 115.649979,91.209778 120.842529,91.209778 
	C120.842529,76.023048 120.842529,61.300991 120.842529,46.021278 
	C125.889061,46.021278 130.489563,46.021278 135.553070,46.093246 
z"/>
<path fill="#FFF796" opacity="1.000000" stroke="none" 
	d="
M211.501587,136.070251 
	C207.205429,136.082352 203.373337,135.948288 199.545105,136.020065 
	C197.003067,136.067719 195.997299,135.067841 195.962219,132.493744 
	C195.913071,128.887558 196.833160,123.961929 194.907700,122.053825 
	C192.970734,120.134346 188.058456,121.070168 184.447327,121.036339 
	C181.815063,121.011681 180.912476,119.879799 180.985901,117.395691 
	C181.089279,113.899918 181.030716,110.399361 181.081802,106.435760 
	C190.907501,105.970680 200.692810,105.970680 210.893097,105.970680 
	C210.893097,111.017731 210.893097,115.759277 210.893097,120.887405 
	C226.023422,120.887405 240.745132,120.887405 255.730957,120.887405 
	C255.730957,126.009598 255.730957,130.739487 255.730957,136.011581 
	C241.128250,136.011581 226.547775,136.011581 211.501587,136.070251 
z"/>
<path fill="#FCA440" opacity="1.000000" stroke="none" 
	d="
M135.953796,211.492218 
	C140.656662,211.030548 145.395279,211.035248 150.601654,211.071304 
	C151.069382,220.871841 151.069382,230.641022 151.069382,240.703827 
	C145.989548,240.703827 141.274719,240.703827 135.989548,240.703827 
	C135.989548,231.101608 135.989548,221.530106 135.953796,211.492218 
z"/>
<path fill="#FCA440" opacity="1.000000" stroke="none" 
	d="
M149.906769,44.551685 
	C146.124939,44.793644 142.415100,44.571270 138.345825,43.871563 
	C137.379822,42.596153 136.773239,41.798077 136.166656,41.000000 
	C136.118256,33.636879 136.069870,26.273756 136.255264,18.336346 
	C136.691650,17.594318 136.857498,17.395855 136.986557,17.166666 
	C140.417191,17.315941 143.948486,18.042065 147.252426,17.465437 
	C151.197952,16.776840 150.941055,19.400570 150.905945,21.362778 
	C150.770294,28.940739 150.314957,36.512978 149.906769,44.551685 
z"/>
<path fill="#FCA440" opacity="1.000000" stroke="none" 
	d="
M136.094238,41.371048 
	C136.773239,41.798077 137.379822,42.596153 138.002670,43.733028 
	C137.807800,44.327503 137.596634,44.583183 137.167999,44.963737 
	C136.640976,43.973103 136.331406,42.857597 136.094238,41.371048 
z"/>
<path fill="#FCA440" opacity="1.000000" stroke="none" 
	d="
M136.728424,17.131842 
	C136.857498,17.395855 136.691650,17.594318 136.327850,17.871502 
	C136.267853,17.686302 136.369064,17.391661 136.728424,17.131842 
z"/>
</svg>